# xmcd
#
# Track frame offsets:
#	182
#	9690
#	22987
#	33590
#	46927
#	55907
#	63602
#	73830
#	84375
#	96052
#	106172
#	119465
#	133360
#	144192
#	156427
#	165855
#	179065
#	191317
#	203180
#	215380
#	227987
#
# Disc length: 3201 seconds
#
# Revision: 0
# Processed by: cddbd v1.5.2PL0 Copyright (c) Steve Scherf et al.
# Submitted via: audiograbber 1.83.01
#
DISCID=2a0c7f15
DTITLE=Jim Reeves - Country Classics - Jim Reeves [Disc 2]
DYEAR=1994
DGENRE=Country
TTITLE0=Dear Hearts And Gentle People
TTITLE1=Danny Boy
TTITLE2=Scarlet Ribbons (For Her Hair)
TTITLE3=Old Tige
TTITLE4=A Stranger's Just A Friend
TTITLE5=Teach Me How To Pray
TTITLE6=The Flowers, The Sunset, The Trees
TTITLE7=In The Garden
TTITLE8=An Evening Prayer
TTITLE9=The Farmer And The Lord
TTITLE10=My Cathedral
TTITLE11=Whispering Hope
TTITLE12=Take My Hand, Precious Lord
TTITLE13=He Will
TTITLE14=Padre Of Old San Antone
TTITLE15=It's No Secret (What God Can Do)
TTITLE16=Precious Memories
TTITLE17=May The Good Lord Bless And Keep You
TTITLE18=We Thank Thee
TTITLE19=This World Is Not My Home
TTITLE20=God Be With You (Till We Meet Again)
EXTD=
EXTT0=
EXTT1=
EXTT2=
EXTT3=
EXTT4=
EXTT5=
EXTT6=
EXTT7=
EXTT8=
EXTT9=
EXTT10=
EXTT11=
EXTT12=
EXTT13=
EXTT14=
EXTT15=
EXTT16=
EXTT17=
EXTT18=
EXTT19=
EXTT20=
PLAYORDER=
